# Tiled2Unity generated file. Do not modify by hand.
# Wavefront file for 'Background_mesh_0002.obj'

# Vertices (Count = 524)
v -384 -16 0
v -400 -16 0
v -400 0 0
v -384 0 0
v -368 -16 0
v -384 -16 0
v -384 0 0
v -368 0 0
v -352 -16 0
v -368 -16 0
v -368 0 0
v -352 0 0
v -336 -16 0
v -352 -16 0
v -352 0 0
v -336 0 0
v -320 -16 0
v -336 -16 0
v -336 0 0
v -320 0 0
v -304 -16 0
v -320 -16 0
v -320 0 0
v -304 0 0
v -288 -16 0
v -304 -16 0
v -304 0 0
v -288 0 0
v -272 -16 0
v -288 -16 0
v -288 0 0
v -272 0 0
v -256 -16 0
v -272 -16 0
v -272 0 0
v -256 0 0
v -240 -16 0
v -256 -16 0
v -256 0 0
v -240 0 0
v -224 -16 0
v -240 -16 0
v -240 0 0
v -224 0 0
v -208 -16 0
v -224 -16 0
v -224 0 0
v -208 0 0
v -192 -16 0
v -208 -16 0
v -208 0 0
v -192 0 0
v -176 -16 0
v -192 -16 0
v -192 0 0
v -176 0 0
v -160 -16 0
v -176 -16 0
v -176 0 0
v -160 0 0
v -144 -16 0
v -160 -16 0
v -160 0 0
v -144 0 0
v -128 -16 0
v -144 -16 0
v -144 0 0
v -128 0 0
v -112 -16 0
v -128 -16 0
v -128 0 0
v -112 0 0
v -96 -16 0
v -112 -16 0
v -112 0 0
v -96 0 0
v -80 -16 0
v -96 -16 0
v -96 0 0
v -80 0 0
v -64 -16 0
v -80 -16 0
v -80 0 0
v -64 0 0
v -48 -16 0
v -64 -16 0
v -64 0 0
v -48 0 0
v -32 -16 0
v -48 -16 0
v -48 0 0
v -32 0 0
v -16 -16 0
v -32 -16 0
v -32 0 0
v -16 0 0
v 0 -16 0
v -16 -16 0
v -16 0 0
v 0 0 0
v -384 -32 0
v -400 -32 0
v -400 -16 0
v -384 -16 0
v 0 -32 0
v -16 -32 0
v -16 -16 0
v 0 -16 0
v -384 -48 0
v -400 -48 0
v -400 -32 0
v -384 -32 0
v -240 -48 0
v -256 -48 0
v -256 -32 0
v -240 -32 0
v -224 -48 0
v -240 -48 0
v -240 -32 0
v -224 -32 0
v 0 -48 0
v -16 -48 0
v -16 -32 0
v 0 -32 0
v -384 -64 0
v -400 -64 0
v -400 -48 0
v -384 -48 0
v -240 -64 0
v -256 -64 0
v -256 -48 0
v -240 -48 0
v -224 -64 0
v -240 -64 0
v -240 -48 0
v -224 -48 0
v -144 -64 0
v -160 -64 0
v -160 -48 0
v -144 -48 0
v -128 -64 0
v -144 -64 0
v -144 -48 0
v -128 -48 0
v 0 -64 0
v -16 -64 0
v -16 -48 0
v 0 -48 0
v -384 -80 0
v -400 -80 0
v -400 -64 0
v -384 -64 0
v -144 -80 0
v -160 -80 0
v -160 -64 0
v -144 -64 0
v -128 -80 0
v -144 -80 0
v -144 -64 0
v -128 -64 0
v 0 -80 0
v -16 -80 0
v -16 -64 0
v 0 -64 0
v -384 -96 0
v -400 -96 0
v -400 -80 0
v -384 -80 0
v -64 -96 0
v -80 -96 0
v -80 -80 0
v -64 -80 0
v -48 -96 0
v -64 -96 0
v -64 -80 0
v -48 -80 0
v 0 -96 0
v -16 -96 0
v -16 -80 0
v 0 -80 0
v -384 -112 0
v -400 -112 0
v -400 -96 0
v -384 -96 0
v -304 -112 0
v -320 -112 0
v -320 -96 0
v -304 -96 0
v -288 -112 0
v -304 -112 0
v -304 -96 0
v -288 -96 0
v -64 -112 0
v -80 -112 0
v -80 -96 0
v -64 -96 0
v -48 -112 0
v -64 -112 0
v -64 -96 0
v -48 -96 0
v 0 -112 0
v -16 -112 0
v -16 -96 0
v 0 -96 0
v -384 -128 0
v -400 -128 0
v -400 -112 0
v -384 -112 0
v -304 -128 0
v -320 -128 0
v -320 -112 0
v -304 -112 0
v -288 -128 0
v -304 -128 0
v -304 -112 0
v -288 -112 0
v 0 -128 0
v -16 -128 0
v -16 -112 0
v 0 -112 0
v -384 -144 0
v -400 -144 0
v -400 -128 0
v -384 -128 0
v -192 -144 0
v -208 -144 0
v -208 -128 0
v -192 -128 0
v -176 -144 0
v -192 -144 0
v -192 -128 0
v -176 -128 0
v 0 -144 0
v -16 -144 0
v -16 -128 0
v 0 -128 0
v -384 -160 0
v -400 -160 0
v -400 -144 0
v -384 -144 0
v -192 -160 0
v -208 -160 0
v -208 -144 0
v -192 -144 0
v -176 -160 0
v -192 -160 0
v -192 -144 0
v -176 -144 0
v -368 -176 0
v -384 -176 0
v -384 -160 0
v -368 -160 0
v -384 -240 0
v -400 -240 0
v -400 -224 0
v -384 -224 0
v -384 -256 0
v -400 -256 0
v -400 -240 0
v -384 -240 0
v -384 -272 0
v -400 -272 0
v -400 -256 0
v -384 -256 0
v -352 -272 0
v -368 -272 0
v -368 -256 0
v -352 -256 0
v -336 -272 0
v -352 -272 0
v -352 -256 0
v -336 -256 0
v -288 -272 0
v -304 -272 0
v -304 -256 0
v -288 -256 0
v 0 -272 0
v -16 -272 0
v -16 -256 0
v 0 -256 0
v -384 -288 0
v -400 -288 0
v -400 -272 0
v -384 -272 0
v -352 -288 0
v -368 -288 0
v -368 -272 0
v -352 -272 0
v -336 -288 0
v -352 -288 0
v -352 -272 0
v -336 -272 0
v -256 -288 0
v -272 -288 0
v -272 -272 0
v -256 -272 0
v -240 -288 0
v -256 -288 0
v -256 -272 0
v -240 -272 0
v -64 -288 0
v -80 -288 0
v -80 -272 0
v -64 -272 0
v -48 -288 0
v -64 -288 0
v -64 -272 0
v -48 -272 0
v 0 -288 0
v -16 -288 0
v -16 -272 0
v 0 -272 0
v -384 -304 0
v -400 -304 0
v -400 -288 0
v -384 -288 0
v -256 -304 0
v -272 -304 0
v -272 -288 0
v -256 -288 0
v -240 -304 0
v -256 -304 0
v -256 -288 0
v -240 -288 0
v -64 -304 0
v -80 -304 0
v -80 -288 0
v -64 -288 0
v -48 -304 0
v -64 -304 0
v -64 -288 0
v -48 -288 0
v 0 -304 0
v -16 -304 0
v -16 -288 0
v 0 -288 0
v -384 -320 0
v -400 -320 0
v -400 -304 0
v -384 -304 0
v -304 -320 0
v -320 -320 0
v -320 -304 0
v -304 -304 0
v -288 -320 0
v -304 -320 0
v -304 -304 0
v -288 -304 0
v -192 -320 0
v -208 -320 0
v -208 -304 0
v -192 -304 0
v -176 -320 0
v -192 -320 0
v -192 -304 0
v -176 -304 0
v 0 -320 0
v -16 -320 0
v -16 -304 0
v 0 -304 0
v -384 -336 0
v -400 -336 0
v -400 -320 0
v -384 -320 0
v -304 -336 0
v -320 -336 0
v -320 -320 0
v -304 -320 0
v -288 -336 0
v -304 -336 0
v -304 -320 0
v -288 -320 0
v -192 -336 0
v -208 -336 0
v -208 -320 0
v -192 -320 0
v -176 -336 0
v -192 -336 0
v -192 -320 0
v -176 -320 0
v -112 -336 0
v -128 -336 0
v -128 -320 0
v -112 -320 0
v -96 -336 0
v -112 -336 0
v -112 -320 0
v -96 -320 0
v 0 -336 0
v -16 -336 0
v -16 -320 0
v 0 -320 0
v -384 -352 0
v -400 -352 0
v -400 -336 0
v -384 -336 0
v -112 -352 0
v -128 -352 0
v -128 -336 0
v -112 -336 0
v -96 -352 0
v -112 -352 0
v -112 -336 0
v -96 -336 0
v 0 -352 0
v -16 -352 0
v -16 -336 0
v 0 -336 0
v -384 -368 0
v -400 -368 0
v -400 -352 0
v -384 -352 0
v 0 -368 0
v -16 -368 0
v -16 -352 0
v 0 -352 0
v -384 -384 0
v -400 -384 0
v -400 -368 0
v -384 -368 0
v 0 -384 0
v -16 -384 0
v -16 -368 0
v 0 -368 0
v -384 -400 0
v -400 -400 0
v -400 -384 0
v -384 -384 0
v -368 -400 0
v -384 -400 0
v -384 -384 0
v -368 -384 0
v -352 -400 0
v -368 -400 0
v -368 -384 0
v -352 -384 0
v -336 -400 0
v -352 -400 0
v -352 -384 0
v -336 -384 0
v -320 -400 0
v -336 -400 0
v -336 -384 0
v -320 -384 0
v -304 -400 0
v -320 -400 0
v -320 -384 0
v -304 -384 0
v -288 -400 0
v -304 -400 0
v -304 -384 0
v -288 -384 0
v -272 -400 0
v -288 -400 0
v -288 -384 0
v -272 -384 0
v -256 -400 0
v -272 -400 0
v -272 -384 0
v -256 -384 0
v -240 -400 0
v -256 -400 0
v -256 -384 0
v -240 -384 0
v -224 -400 0
v -240 -400 0
v -240 -384 0
v -224 -384 0
v -208 -400 0
v -224 -400 0
v -224 -384 0
v -208 -384 0
v -192 -400 0
v -208 -400 0
v -208 -384 0
v -192 -384 0
v -176 -400 0
v -192 -400 0
v -192 -384 0
v -176 -384 0
v -160 -400 0
v -176 -400 0
v -176 -384 0
v -160 -384 0
v -144 -400 0
v -160 -400 0
v -160 -384 0
v -144 -384 0
v -128 -400 0
v -144 -400 0
v -144 -384 0
v -128 -384 0
v -112 -400 0
v -128 -400 0
v -128 -384 0
v -112 -384 0
v -96 -400 0
v -112 -400 0
v -112 -384 0
v -96 -384 0
v -80 -400 0
v -96 -400 0
v -96 -384 0
v -80 -384 0
v -64 -400 0
v -80 -400 0
v -80 -384 0
v -64 -384 0
v -48 -400 0
v -64 -400 0
v -64 -384 0
v -48 -384 0
v -32 -400 0
v -48 -400 0
v -48 -384 0
v -32 -384 0
v -16 -400 0
v -32 -400 0
v -32 -384 0
v -16 -384 0
v 0 -400 0
v -16 -400 0
v -16 -384 0
v 0 -384 0

# Texture cooridinates (Count = 48)
vt 0.175 0.5
vt 0.2 0.5
vt 0.2 0.5277778
vt 0.175 0.5277778
vt 0.125 0.4444444
vt 0.15 0.4444444
vt 0.15 0.4722222
vt 0.125 0.4722222
vt 0.2 0.5555556
vt 0.175 0.5555556
vt 0.175 0.4722222
vt 0.15 0.5
vt 0.2 0.4722222
vt 0.8 0.8888889
vt 0.825 0.8888889
vt 0.825 0.9166667
vt 0.8 0.9166667
vt 0.775 0.8888889
vt 0.775 0.9166667
vt 0.8 0.8611111
vt 0.825 0.8611111
vt 0.775 0.8611111
vt 0.15 0.5277778
vt 0.15 0.5555556
vt 0.125 0.5277778
vt 0.125 0.5555556
vt 0.125 0.5
vt 0.85 0.9166667
vt 0.875 0.9166667
vt 0.875 0.9444444
vt 0.85 0.9444444
vt 0.175 0.8333333
vt 0.2 0.8333333
vt 0.2 0.8611111
vt 0.175 0.8611111
vt 0.25 0.6666666
vt 0.275 0.6666666
vt 0.275 0.6944444
vt 0.25 0.6944444
vt 0.225 0.6666666
vt 0.225 0.6944444
vt 0.25 0.6388889
vt 0.275 0.6388889
vt 0.225 0.6388889
vt 0.075 0.5277778
vt 0.1 0.5277778
vt 0.1 0.5555556
vt 0.075 0.5555556

# Normal
vn 0 0 -1

# Mesh description
g Background_mesh_0002

# Faces
f 1/1/1 2/2/1 3/3/1 4/4/1
f 5/5/1 6/6/1 7/7/1 8/8/1
f 9/5/1 10/6/1 11/7/1 12/8/1
f 13/5/1 14/6/1 15/7/1 16/8/1
f 17/5/1 18/6/1 19/7/1 20/8/1
f 21/5/1 22/6/1 23/7/1 24/8/1
f 25/5/1 26/6/1 27/7/1 28/8/1
f 29/5/1 30/6/1 31/7/1 32/8/1
f 33/5/1 34/6/1 35/7/1 36/8/1
f 37/5/1 38/6/1 39/7/1 40/8/1
f 41/5/1 42/6/1 43/7/1 44/8/1
f 45/5/1 46/6/1 47/7/1 48/8/1
f 49/5/1 50/6/1 51/7/1 52/8/1
f 53/5/1 54/6/1 55/7/1 56/8/1
f 57/5/1 58/6/1 59/7/1 60/8/1
f 61/5/1 62/6/1 63/7/1 64/8/1
f 65/5/1 66/6/1 67/7/1 68/8/1
f 69/5/1 70/6/1 71/7/1 72/8/1
f 73/5/1 74/6/1 75/7/1 76/8/1
f 77/5/1 78/6/1 79/7/1 80/8/1
f 81/5/1 82/6/1 83/7/1 84/8/1
f 85/5/1 86/6/1 87/7/1 88/8/1
f 89/5/1 90/6/1 91/7/1 92/8/1
f 93/5/1 94/6/1 95/7/1 96/8/1
f 97/4/1 98/3/1 99/9/1 100/10/1
f 101/7/1 102/11/1 103/1/1 104/12/1
f 105/11/1 106/13/1 107/2/1 108/1/1
f 109/7/1 110/11/1 111/1/1 112/12/1
f 113/14/1 114/15/1 115/16/1 116/17/1
f 117/18/1 118/14/1 119/17/1 120/19/1
f 121/11/1 122/13/1 123/2/1 124/1/1
f 125/7/1 126/11/1 127/1/1 128/12/1
f 129/20/1 130/21/1 131/15/1 132/14/1
f 133/22/1 134/20/1 135/14/1 136/18/1
f 137/23/1 138/4/1 139/10/1 140/24/1
f 141/25/1 142/23/1 143/24/1 144/26/1
f 145/11/1 146/13/1 147/2/1 148/1/1
f 149/7/1 150/11/1 151/1/1 152/12/1
f 153/12/1 154/1/1 155/4/1 156/23/1
f 157/27/1 158/12/1 159/23/1 160/25/1
f 161/11/1 162/13/1 163/2/1 164/1/1
f 165/7/1 166/11/1 167/1/1 168/12/1
f 169/14/1 170/15/1 171/16/1 172/17/1
f 173/18/1 174/14/1 175/17/1 176/19/1
f 177/11/1 178/13/1 179/2/1 180/1/1
f 181/7/1 182/11/1 183/1/1 184/12/1
f 185/23/1 186/4/1 187/10/1 188/24/1
f 189/25/1 190/23/1 191/24/1 192/26/1
f 193/20/1 194/21/1 195/15/1 196/14/1
f 197/22/1 198/20/1 199/14/1 200/18/1
f 201/11/1 202/13/1 203/2/1 204/1/1
f 205/7/1 206/11/1 207/1/1 208/12/1
f 209/12/1 210/1/1 211/4/1 212/23/1
f 213/27/1 214/12/1 215/23/1 216/25/1
f 217/11/1 218/13/1 219/2/1 220/1/1
f 221/7/1 222/11/1 223/1/1 224/12/1
f 225/14/1 226/15/1 227/16/1 228/17/1
f 229/18/1 230/14/1 231/17/1 232/19/1
f 233/12/1 234/1/1 235/4/1 236/23/1
f 237/27/1 238/12/1 239/23/1 240/25/1
f 241/20/1 242/21/1 243/15/1 244/14/1
f 245/22/1 246/20/1 247/14/1 248/18/1
f 249/28/1 250/29/1 251/30/1 252/31/1
f 253/25/1 254/23/1 255/24/1 256/26/1
f 257/7/1 258/11/1 259/1/1 260/12/1
f 261/7/1 262/11/1 263/1/1 264/12/1
f 265/14/1 266/15/1 267/16/1 268/17/1
f 269/18/1 270/14/1 271/17/1 272/19/1
f 273/32/1 274/33/1 275/34/1 276/35/1
f 277/23/1 278/4/1 279/10/1 280/24/1
f 281/7/1 282/11/1 283/1/1 284/12/1
f 285/20/1 286/21/1 287/15/1 288/14/1
f 289/22/1 290/20/1 291/14/1 292/18/1
f 293/23/1 294/4/1 295/10/1 296/24/1
f 297/25/1 298/23/1 299/24/1 300/26/1
f 301/14/1 302/15/1 303/16/1 304/17/1
f 305/18/1 306/14/1 307/17/1 308/19/1
f 309/11/1 310/13/1 311/2/1 312/1/1
f 313/7/1 314/11/1 315/1/1 316/12/1
f 317/12/1 318/1/1 319/4/1 320/23/1
f 321/27/1 322/12/1 323/23/1 324/25/1
f 325/20/1 326/21/1 327/15/1 328/14/1
f 329/22/1 330/20/1 331/14/1 332/18/1
f 333/11/1 334/13/1 335/2/1 336/1/1
f 337/7/1 338/11/1 339/1/1 340/12/1
f 341/14/1 342/15/1 343/16/1 344/17/1
f 345/18/1 346/14/1 347/17/1 348/19/1
f 349/36/1 350/37/1 351/38/1 352/39/1
f 353/40/1 354/36/1 355/39/1 356/41/1
f 357/11/1 358/13/1 359/2/1 360/1/1
f 361/7/1 362/11/1 363/1/1 364/12/1
f 365/20/1 366/21/1 367/15/1 368/14/1
f 369/22/1 370/20/1 371/14/1 372/18/1
f 373/42/1 374/43/1 375/37/1 376/36/1
f 377/44/1 378/42/1 379/36/1 380/40/1
f 381/23/1 382/4/1 383/10/1 384/24/1
f 385/25/1 386/23/1 387/24/1 388/26/1
f 389/11/1 390/13/1 391/2/1 392/1/1
f 393/7/1 394/11/1 395/1/1 396/12/1
f 397/12/1 398/1/1 399/4/1 400/23/1
f 401/27/1 402/12/1 403/23/1 404/25/1
f 405/11/1 406/13/1 407/2/1 408/1/1
f 409/7/1 410/11/1 411/1/1 412/12/1
f 413/11/1 414/13/1 415/2/1 416/1/1
f 417/7/1 418/11/1 419/1/1 420/12/1
f 421/11/1 422/13/1 423/2/1 424/1/1
f 425/45/1 426/46/1 427/47/1 428/48/1
f 429/8/1 430/7/1 431/12/1 432/27/1
f 433/8/1 434/7/1 435/12/1 436/27/1
f 437/8/1 438/7/1 439/12/1 440/27/1
f 441/8/1 442/7/1 443/12/1 444/27/1
f 445/8/1 446/7/1 447/12/1 448/27/1
f 449/8/1 450/7/1 451/12/1 452/27/1
f 453/8/1 454/7/1 455/12/1 456/27/1
f 457/8/1 458/7/1 459/12/1 460/27/1
f 461/8/1 462/7/1 463/12/1 464/27/1
f 465/8/1 466/7/1 467/12/1 468/27/1
f 469/8/1 470/7/1 471/12/1 472/27/1
f 473/8/1 474/7/1 475/12/1 476/27/1
f 477/8/1 478/7/1 479/12/1 480/27/1
f 481/8/1 482/7/1 483/12/1 484/27/1
f 485/8/1 486/7/1 487/12/1 488/27/1
f 489/8/1 490/7/1 491/12/1 492/27/1
f 493/8/1 494/7/1 495/12/1 496/27/1
f 497/8/1 498/7/1 499/12/1 500/27/1
f 501/8/1 502/7/1 503/12/1 504/27/1
f 505/8/1 506/7/1 507/12/1 508/27/1
f 509/8/1 510/7/1 511/12/1 512/27/1
f 513/8/1 514/7/1 515/12/1 516/27/1
f 517/8/1 518/7/1 519/12/1 520/27/1
f 521/46/1 522/25/1 523/26/1 524/47/1

